<svg width="80" height="87" viewBox="0 0 80 87" fill="none" xmlns="http://www.w3.org/2000/svg">
<g id="Group 1">
<path id="Path 1" d="M0.031855 86.9818V86.7185C0.251297 86.7086 0.468685 86.6659 0.678307 86.5914C0.840071 86.517 0.986764 86.4058 1.10928 86.2644C1.25555 86.091 1.35522 85.8736 1.39656 85.6378C1.46112 85.2366 1.48785 84.8287 1.47634 84.421V78.5183C1.48173 78.1633 1.46569 77.8083 1.42841 77.4558C1.39918 77.2493 1.33987 77.0498 1.25287 76.8656C1.13978 76.6682 0.982892 76.5085 0.798032 76.4024C0.571187 76.2896 0.327258 76.228 0.0797837 76.2208H0V76.0029H4.35722C4.90746 75.9881 5.45779 76.0306 6.00121 76.13C6.35754 76.2194 6.69248 76.3961 6.98278 76.6476C7.30496 76.9165 7.56529 77.2699 7.74174 77.6778C7.91819 78.0857 8.00555 78.536 7.99629 78.9905C8.01926 79.428 7.93517 79.8641 7.75343 80.2504C7.5717 80.6368 7.29942 80.9582 6.9668 81.1791C6.56691 81.4308 6.12228 81.5767 5.666 81.6059H3.16017V84.4391C3.15267 84.8437 3.17937 85.2482 3.23996 85.6469C3.28122 85.862 3.36829 86.0623 3.49353 86.2302C3.61877 86.398 3.77835 86.5283 3.95821 86.6095C4.17059 86.6839 4.39051 86.7266 4.61255 86.7367V87L0.031855 86.9818ZM3.77467 81.2517C4.134 81.2613 4.493 81.2216 4.84401 81.1336C5.08932 81.0586 5.31432 80.915 5.49845 80.7159C5.72512 80.4793 5.90385 80.1895 6.02235 79.8665C6.14085 79.5435 6.19629 79.195 6.18474 78.8452C6.18707 78.4377 6.1193 78.0336 5.98524 77.6556C5.86771 77.3028 5.67256 76.9901 5.41857 76.7475C5.13303 76.4781 4.78244 76.3135 4.41304 76.2753H3.12023V81.2426L3.77467 81.2517Z" fill="#143B29"/>
<path id="Path 2" d="M3.07672 81.5695V84.4627C3.06496 84.8725 3.09215 85.2825 3.15788 85.6857C3.20368 85.933 3.3106 86.1608 3.46637 86.3429C3.59001 86.4927 3.74277 86.6083 3.9128 86.6806C4.12689 86.7641 4.35188 86.8073 4.57852 86.8083V87H0V86.8083C0.22929 86.8073 0.456856 86.7642 0.673752 86.6806C0.843776 86.6083 0.996638 86.4927 1.12028 86.3429C1.27406 86.1628 1.38079 85.9386 1.42876 85.6949C1.49059 85.288 1.51775 84.8754 1.50992 84.4627V78.5303C1.5135 78.1733 1.49455 77.8164 1.45314 77.4624C1.43101 77.2458 1.36732 77.0372 1.26644 76.8509C1.15343 76.6428 0.990082 76.475 0.795541 76.3672C0.559366 76.2529 0.305836 76.1909 0.0487551 76.1847H0V76.0021H4.36745C4.91096 75.9896 5.45437 76.0323 5.99103 76.1299C6.34847 76.2201 6.68382 76.3977 6.97327 76.6502C7.30055 76.9118 7.56528 77.2604 7.74374 77.6648C7.9222 78.0693 8.00886 78.5171 7.99613 78.9684C8.01963 79.4009 7.93572 79.8323 7.75365 80.2143C7.57158 80.5963 7.29851 80.9138 6.96514 81.1314C6.56231 81.3793 6.11635 81.5257 5.65817 81.5604H4.48111L3.07672 81.5695ZM3.07672 81.314H3.77485C4.14321 81.3287 4.51167 81.2888 4.87075 81.1953C5.12774 81.1225 5.36298 80.9745 5.55263 80.7664C5.78746 80.526 5.97244 80.2305 6.09449 79.9009C6.21653 79.5713 6.27265 79.2156 6.25889 78.8588C6.26541 78.4429 6.19636 78.0299 6.05594 77.645C5.92928 77.2923 5.7288 76.9792 5.47147 76.7323C5.17468 76.4602 4.81336 76.292 4.43235 76.2486H3.07672V81.314Z" fill="#143B29"/>
<path id="Path 3" d="M14.4873 86.9825C13.3713 87.0759 12.2608 86.7423 11.3602 86.0429C10.9205 85.6348 10.641 85.0692 10.5762 84.4563C10.534 84.0412 10.5171 83.6238 10.5257 83.2065V78.4553C10.5354 78.0578 10.51 77.6602 10.4499 77.2675C10.4016 77.0373 10.2937 76.8256 10.138 76.6559C10.0132 76.5123 9.85693 76.4027 9.68281 76.3368C9.46261 76.2589 9.23229 76.2171 9 76.2127V76H13.83V76.2571C13.5978 76.2631 13.3677 76.3049 13.1471 76.3811C12.971 76.4427 12.8138 76.5529 12.6919 76.7003C12.5296 76.8754 12.421 77.0977 12.3801 77.3385C12.3175 77.7814 12.2922 78.2293 12.3042 78.6769V83.109C12.2936 83.6273 12.3189 84.1457 12.3801 84.6602C12.427 84.9745 12.533 85.2758 12.6919 85.5466C12.8874 85.92 13.1797 86.2274 13.5349 86.433C13.9438 86.6312 14.3914 86.7254 14.8414 86.7077C15.34 86.7119 15.8358 86.628 16.3081 86.4596C16.7344 86.3183 17.1298 86.0893 17.4713 85.7859C17.6481 85.6251 17.7891 85.4254 17.8843 85.2009C17.9865 84.9472 18.0491 84.6778 18.0697 84.4031V78.5174C18.0823 78.1194 18.054 77.7212 17.9854 77.3296C17.9347 77.1022 17.8304 76.8918 17.682 76.718C17.5542 76.5739 17.3951 76.4644 17.2184 76.3989C17.0009 76.3217 16.7736 76.2799 16.5441 76.2748V76H20V76.2571C19.7705 76.2622 19.5431 76.304 19.3256 76.3811C19.1515 76.447 18.9953 76.5566 18.8705 76.7003C18.715 76.8735 18.6071 77.088 18.5587 77.3207C18.4947 77.71 18.4664 78.1048 18.4743 78.4997V83.4369C18.4962 83.9829 18.4423 84.5294 18.3142 85.059C18.1868 85.4404 17.9623 85.7777 17.6651 86.0341C16.7508 86.7461 15.621 87.0833 14.4873 86.9825Z" fill="#143B29"/>
<path id="Path 4" d="M13.8114 76V76.1869C13.5742 76.1894 13.3389 76.2315 13.1144 76.3115C12.9346 76.3785 12.7738 76.4917 12.6468 76.6407C12.4764 76.821 12.361 77.0502 12.3152 77.2993C12.2519 77.7469 12.2263 78.1995 12.2388 78.6519V83.1014C12.2277 83.6247 12.2532 84.1482 12.3152 84.6676C12.3664 84.9835 12.4762 85.2858 12.6383 85.5575C12.8369 85.9313 13.1313 86.2395 13.4883 86.4474C13.9068 86.6463 14.3638 86.7408 14.823 86.7233C15.3279 86.726 15.83 86.6449 16.3107 86.483C16.747 86.3356 17.1515 86.0998 17.5008 85.7889C17.681 85.6237 17.8259 85.4205 17.9259 85.1926C18.0292 84.9318 18.0923 84.6555 18.1128 84.3739V78.465C18.1255 78.0625 18.097 77.6598 18.0279 77.2637C17.9848 77.0464 17.8896 76.8442 17.7513 76.676C17.613 76.5079 17.4361 76.3794 17.2372 76.3026C17.013 76.2211 16.7775 76.179 16.5402 76.178V76H20V76.1869C19.7627 76.1887 19.5274 76.2307 19.303 76.3115C19.1229 76.3827 18.9602 76.4952 18.8269 76.6407C18.6697 76.8214 18.5612 77.0425 18.5124 77.2815C18.4431 77.6746 18.4146 78.0744 18.4274 78.4739V83.4306C18.4452 83.9757 18.3908 84.5208 18.2658 85.0503C18.1395 85.4245 17.9157 85.7544 17.6197 86.0024C16.6933 86.6424 15.6101 86.9887 14.5002 86.9997C13.3903 87.0108 12.301 86.6861 11.3631 86.0647C10.9253 85.6591 10.6467 85.0979 10.5811 84.4896C10.5569 84.0747 10.5569 83.6587 10.5811 83.2438V78.4739C10.5894 78.0715 10.5609 77.6693 10.496 77.2725C10.448 77.0341 10.336 76.8149 10.1731 76.6407C10.046 76.4917 9.88524 76.3785 9.70553 76.3115C9.47841 76.2299 9.24011 76.1878 9 76.1869V76H13.8114Z" fill="#143B29"/>
<path id="Path 5" d="M28.4214 86.9547L28.1678 86.3748L27.6259 85.0972C27.3024 84.3451 26.9703 83.6656 26.6468 83.0766C26.4249 82.6335 26.129 82.2347 25.7727 81.8987C25.643 81.7958 25.4942 81.7218 25.3357 81.6812C25.1474 81.6303 24.9534 81.6059 24.7588 81.6087H24.4179V84.3995C24.4071 84.8037 24.4393 85.2078 24.514 85.6046C24.5573 85.8432 24.6666 86.0636 24.8287 86.2389C24.9581 86.3816 25.1163 86.493 25.292 86.5651C25.5246 86.6393 25.7655 86.6819 26.0087 86.6919V86.9547H21V86.6919C21.2404 86.6821 21.4784 86.6395 21.708 86.5651C21.8852 86.4909 22.0459 86.3799 22.1801 86.2389C22.3397 86.0641 22.4513 85.8482 22.5035 85.6137C22.5659 85.2123 22.5922 84.8059 22.5821 84.3995V78.5099C22.5921 78.1035 22.5658 77.697 22.5035 77.2957C22.4534 77.0603 22.3415 76.844 22.1801 76.6705C22.0506 76.5236 21.8886 76.4117 21.708 76.3443C21.4792 76.2664 21.2407 76.2237 21 76.2175V76H25.9825C26.6253 76.0044 27.2631 76.1176 27.8707 76.3353C28.3566 76.5273 28.7765 76.8648 29.077 77.3048C29.3631 77.7497 29.5125 78.2742 29.5053 78.8089C29.5155 79.1989 29.4369 79.5859 29.276 79.9385C29.115 80.2911 28.8762 80.5995 28.5787 80.8385C28.3897 80.9919 28.1807 81.117 27.958 81.21C27.7035 81.3162 27.4402 81.3981 27.1713 81.4547C27.3836 81.5508 27.581 81.6791 27.757 81.8353C27.8875 81.9594 27.9994 82.1029 28.0892 82.2611C28.1853 82.4333 28.3339 82.7323 28.5262 83.1672C28.9808 84.1367 29.3305 84.8616 29.5665 85.3056C29.7327 85.6467 29.9286 85.9712 30.1521 86.2751C30.248 86.4113 30.3701 86.5254 30.5105 86.6104C30.6644 86.6847 30.8305 86.7278 31 86.7372V87L28.4214 86.9547ZM24.6626 81.355C25.1167 81.371 25.5712 81.3346 26.0175 81.2463C26.3049 81.1621 26.5667 81.003 26.778 80.7842C27.0366 80.5368 27.2414 80.2351 27.3785 79.8991C27.5157 79.5632 27.5822 79.2008 27.5735 78.8361C27.5742 78.4317 27.4969 78.0312 27.3462 77.6582C27.2004 77.3087 26.9791 76.9987 26.6993 76.7521C26.4799 76.5696 26.2225 76.4424 25.9476 76.3806C25.5302 76.2966 25.1051 76.2602 24.6801 76.2718H24.4004V81.346L24.6626 81.355Z" fill="#143B29"/>
<path id="Path 6" d="M24.3072 81.6094V84.4552C24.2945 84.8647 24.3237 85.2745 24.3944 85.6774C24.4436 85.9246 24.5586 86.1522 24.726 86.3342C24.8589 86.4839 25.0232 86.5994 25.206 86.6716C25.4361 86.7552 25.6778 86.7983 25.9214 86.7993V86.9909H21V86.7993C21.2465 86.7983 21.4912 86.7552 21.7243 86.6716C21.9071 86.5994 22.0713 86.4839 22.2042 86.3342C22.3695 86.1542 22.4842 85.9302 22.5358 85.6866C22.6023 85.28 22.6316 84.8676 22.6231 84.4552V78.5265C22.6316 78.1141 22.6023 77.7018 22.5358 77.2952C22.4864 77.0508 22.3714 76.8261 22.2042 76.6476C22.0721 76.4927 21.9037 76.3764 21.7156 76.3101C21.4855 76.2266 21.2436 76.1834 21 76.1824V76H25.9389C26.5773 76.0093 27.2104 76.1232 27.815 76.3375C28.2909 76.5301 28.7011 76.8667 28.993 77.3043C29.2755 77.7431 29.4218 78.2622 29.4118 78.791C29.4297 79.174 29.3599 79.5558 29.2082 79.9049C29.0564 80.2539 28.827 80.56 28.5392 80.7977C28.3536 80.952 28.148 81.0779 27.9285 81.1716C27.6462 81.2906 27.3541 81.3822 27.0559 81.4453C27.3062 81.5444 27.5392 81.6862 27.7452 81.8648C27.8704 81.9889 27.979 82.13 28.0681 82.2844C28.1641 82.4577 28.3124 82.7587 28.5044 83.1965C28.9669 84.1816 29.3071 84.893 29.5427 85.3491C29.7101 85.6944 29.9057 86.024 30.1274 86.3342C30.2291 86.4747 30.3566 86.5925 30.5026 86.6808C30.6593 86.7554 30.828 86.7987 31 86.8085V87H28.4433L28.1989 86.4345L27.6579 85.1484C27.3692 84.4517 27.0429 83.7726 26.6806 83.1144C26.4585 82.6634 26.1633 82.256 25.808 81.9104C25.6705 81.8075 25.5171 81.7304 25.3543 81.6824C25.163 81.6342 24.9664 81.6128 24.7697 81.6186L24.3072 81.6094ZM24.3072 81.427H24.6038C25.0601 81.4438 25.5167 81.4071 25.9651 81.3176C26.2583 81.2357 26.526 81.0754 26.7417 80.8524C27.0044 80.5984 27.2126 80.289 27.3525 79.9446C27.4924 79.6003 27.5607 79.2289 27.5532 78.8549C27.5561 78.4437 27.4759 78.0365 27.3177 77.66C27.1688 77.3079 26.945 76.9959 26.6632 76.7479C26.4375 76.5643 26.175 76.4365 25.8953 76.374C25.4757 76.2896 25.0485 76.2529 24.6213 76.2645H24.3072V81.427Z" fill="#143B29"/>
<path id="Path 7" d="M31 86.8122V86.5528C31.2286 86.5437 31.455 86.5016 31.6729 86.4276C31.8476 86.358 32.0056 86.2481 32.1355 86.1057C32.285 85.9279 32.3893 85.7124 32.4383 85.4797C32.5064 85.0876 32.5347 84.6888 32.5225 84.2902V78.4772C32.5347 78.0787 32.5064 77.6799 32.4383 77.2878C32.3894 77.055 32.2851 76.8395 32.1355 76.6618C32.011 76.5168 31.8551 76.4063 31.6814 76.3398C31.4614 76.2622 31.2317 76.22 31 76.2146V76H39.0579L39.184 78.6829H38.9402C38.8884 78.3064 38.7805 77.9411 38.6206 77.6008C38.4647 77.3042 38.2493 77.0478 37.9897 76.8496C37.739 76.6578 37.452 76.5265 37.1486 76.465C36.7363 76.3761 36.3159 76.3371 35.8954 76.3488H34.2131V81.0081H34.6253C34.9637 81.0156 35.3019 80.9856 35.6346 80.9187C35.8385 80.8613 36.0243 80.747 36.1729 80.5878C36.3071 80.4377 36.4077 80.2573 36.4673 80.0602C36.5523 79.7691 36.6088 79.4693 36.6355 79.1658H36.871V83.4764H36.6271C36.5966 83.147 36.5288 82.8227 36.4253 82.5106C36.3479 82.2836 36.2308 82.0743 36.0804 81.8935C35.926 81.7209 35.7316 81.5944 35.5168 81.5268C35.2231 81.4451 34.9204 81.406 34.6168 81.4106H34.2299V83.1992C34.2204 83.7246 34.2401 84.2502 34.2888 84.7732C34.3101 85.054 34.3754 85.3291 34.4822 85.587C34.6346 85.943 34.8995 86.231 35.2308 86.4008C35.6564 86.59 36.1156 86.6785 36.5766 86.6602C37.0797 86.6745 37.5811 86.5927 38.057 86.4187C38.4367 86.2734 38.7714 86.0197 39.0243 85.6854C39.2024 85.4563 39.347 85.2001 39.4533 84.9252C39.5852 84.5537 39.6865 84.1707 39.756 83.7805H40L39.899 87L31 86.8122Z" fill="#143B29"/>
<path id="Path 8" d="M38.9897 76L39.1161 78.6678H38.9476C38.902 78.2759 38.7937 77.8956 38.6277 77.544C38.4686 77.2327 38.247 76.9642 37.9794 76.7583C37.7273 76.5627 37.4407 76.4259 37.1375 76.3563C36.721 76.2738 36.2979 76.2371 35.8746 76.2467H34.1908V81.0797H34.637C34.9787 81.0919 35.3206 81.0612 35.6558 80.9884C35.8677 80.9324 36.0604 80.812 36.2114 80.6412C36.3545 80.4849 36.4613 80.2938 36.5229 80.0839C36.6041 79.7854 36.6605 79.4797 36.6913 79.1703H36.8597V83.5008H36.6913C36.6629 83.1588 36.5979 82.8216 36.4977 82.4959C36.4146 82.2602 36.2918 82.0433 36.1356 81.8563C35.9752 81.6769 35.7753 81.5449 35.5548 81.4726C35.2589 81.3835 34.9523 81.3435 34.6454 81.3538H34.2245V83.1811C34.2086 83.7177 34.2255 84.2548 34.2751 84.789C34.2968 85.0798 34.3651 85.3643 34.4771 85.6296C34.6302 86.0056 34.9018 86.3101 35.2432 86.4884C35.6751 86.6815 36.1403 86.7719 36.6072 86.7533C37.1162 86.7684 37.6236 86.6849 38.1057 86.5067C38.4876 86.3526 38.8247 86.0909 39.0823 85.7483C39.2699 85.5131 39.4181 85.2441 39.5202 84.9535C39.6516 84.573 39.7558 84.182 39.8317 83.7841H40L39.9074 87H31V86.8081C31.235 86.8071 31.4683 86.7639 31.6903 86.6802C31.8698 86.6094 32.0314 86.4936 32.1618 86.3422C32.3207 86.1592 32.4287 85.9311 32.4733 85.6844C32.5451 85.2812 32.5762 84.8707 32.5659 84.4601V78.5216C32.5766 78.1111 32.5456 77.7005 32.4733 77.2973C32.4287 77.0506 32.3207 76.8226 32.1618 76.6395C32.036 76.4865 31.8768 76.3703 31.6988 76.3015C31.4738 76.2178 31.2378 76.1746 31 76.1736V76H38.9897Z" fill="#143B29"/>
<path id="Path 9" d="M41 87V86.7738L47.3917 76.3438H45.35C44.751 76.3284 44.1525 76.3891 43.5666 76.5247C43.1422 76.6384 42.7448 76.848 42.4 77.1398C42.1375 77.3576 41.9191 77.6316 41.7584 77.9449C41.5982 78.271 41.4964 78.627 41.4584 78.9943H41.2167L41.3916 76H49.3416V76.2262L43.0084 86.6563H45.2917C46.3202 86.7351 47.3495 86.5166 48.275 86.023C48.8046 85.6524 49.222 85.1207 49.475 84.4943C49.6112 84.1751 49.7065 83.8373 49.7583 83.4901H50L49.7666 87H41Z" fill="#143B29"/>
<path id="Path 10" d="M41.3946 76H49.3367V76.1917L42.9225 86.7535H45.2901C46.3345 86.8341 47.3799 86.6136 48.3209 86.1145C48.8578 85.7342 49.2808 85.1916 49.5382 84.5535C49.6784 84.2288 49.7773 83.8848 49.8321 83.5311H50L49.7733 87H41V86.8083L47.4729 76.2465H45.3488C44.7425 76.226 44.1362 76.2873 43.5438 76.429C43.1092 76.543 42.7026 76.7579 42.3517 77.0589C42.087 77.281 41.8646 77.5569 41.6968 77.8714C41.5355 78.2069 41.433 78.5722 41.3946 78.9485H41.2267L41.3946 76Z" fill="#143B29"/>
<path id="Path 11" d="M51 86.8122V86.5528C51.2284 86.5437 51.4546 86.5016 51.6723 86.4276C51.8453 86.36 52.0009 86.2496 52.1261 86.1057C52.2813 85.9309 52.3887 85.7145 52.437 85.4797C52.5051 85.0876 52.5332 84.6888 52.521 84.2902V78.4772C52.5332 78.0787 52.5051 77.6799 52.437 77.2878C52.3887 77.053 52.2813 76.8365 52.1261 76.6618C52.0062 76.5154 51.8528 76.4045 51.6807 76.3398C51.461 76.2622 51.2315 76.22 51 76.2146V76H59.042L59.1764 78.6829H58.9328C58.8874 78.3061 58.7823 77.9402 58.6218 77.6008C58.4656 77.3019 58.2471 77.0449 57.9832 76.8496C57.7333 76.6568 57.4463 76.5254 57.1429 76.465C56.731 76.3761 56.3109 76.3371 55.8908 76.3488H54.2101V81.0081H54.6219C54.96 81.0156 55.2979 80.9856 55.6302 80.9187C55.834 80.8613 56.0196 80.747 56.168 80.5878C56.3021 80.4377 56.4026 80.2573 56.4621 80.0602C56.5472 79.7691 56.6036 79.4694 56.6303 79.1658H56.8739V83.4764H56.6303C56.602 83.1475 56.5372 82.8232 56.437 82.5106C56.36 82.2815 56.2399 82.0715 56.084 81.8935C55.9311 81.7192 55.7364 81.5924 55.521 81.5268C55.2306 81.4439 54.9308 81.4047 54.6303 81.4106H54.2437V83.1992C54.228 83.7245 54.2449 84.2502 54.2941 84.7732C54.318 85.0546 54.3861 85.3297 54.4958 85.587C54.6479 85.943 54.9126 86.231 55.2437 86.4008C55.6689 86.59 56.1277 86.6785 56.5882 86.6602C57.0908 86.6745 57.5918 86.5927 58.0672 86.4187C58.4454 86.271 58.7792 86.0177 59.0336 85.6854C59.2115 85.4563 59.356 85.2001 59.4622 84.9252C59.594 84.5537 59.6952 84.1707 59.7647 83.7805H60L59.9076 87L51 86.8122Z" fill="#143B29"/>
<path id="Path 12" d="M58.9859 76L59.1127 78.6678H58.9437C58.8978 78.2759 58.7893 77.8956 58.6226 77.544C58.4629 77.2327 58.2405 76.9642 57.9719 76.7583C57.7179 76.5645 57.4305 76.4278 57.1268 76.3563C56.7087 76.2742 56.2841 76.2375 55.8592 76.2467H54.169V81.0797H54.6169C54.9598 81.0919 55.303 81.0612 55.6395 80.9884C55.8522 80.9324 56.0456 80.812 56.1971 80.6412C56.3379 80.4825 56.4447 80.2922 56.5099 80.0839C56.5921 79.7861 56.6458 79.4799 56.6704 79.1703H56.8479V83.5008H56.6789C56.6502 83.1589 56.585 82.8216 56.4845 82.4959C56.4011 82.2602 56.2778 82.0433 56.1211 81.8563C55.9601 81.6769 55.7594 81.5449 55.5381 81.4726C55.2411 81.3835 54.9333 81.3435 54.6253 81.3538H54.2028V83.1811C54.1868 83.7177 54.2038 84.2548 54.2535 84.789C54.2753 85.0798 54.344 85.3643 54.4563 85.6296C54.6099 86.0057 54.8827 86.3102 55.2254 86.4884C55.659 86.6815 56.1258 86.7718 56.5944 86.7533C57.1054 86.7684 57.6147 86.6849 58.0986 86.5067C58.4819 86.3527 58.8203 86.0909 59.0789 85.7483C59.2642 85.5109 59.4127 85.2424 59.5184 84.9535C59.6503 84.573 59.7549 84.182 59.831 83.7841H60L59.8986 87H51V86.8081C51.2359 86.8071 51.47 86.7639 51.6929 86.6802C51.8731 86.6094 52.0353 86.4936 52.1662 86.3422C52.3225 86.1568 52.4304 85.9297 52.4789 85.6844C52.5473 85.2807 52.5756 84.8703 52.5634 84.4601V78.5216C52.576 78.1114 52.5477 77.701 52.4789 77.2973C52.4304 77.052 52.3225 76.825 52.1662 76.6395C52.0383 76.4885 51.8789 76.3727 51.7014 76.3015C51.4756 76.2178 51.2387 76.1746 51 76.1736V76H58.9859Z" fill="#143B29"/>
<path id="Path 13" d="M69.9822 86.9547L62.9412 77.5585V84.3995C62.9289 84.8063 62.9574 85.2133 63.0263 85.6137C63.0743 85.8474 63.1801 86.0633 63.3328 86.2389C63.4628 86.3851 63.6232 86.4968 63.8011 86.5651C64.0217 86.64 64.2508 86.6827 64.4822 86.6919V86.9547H61V86.6919C61.234 86.6813 61.4659 86.6387 61.6897 86.5651C61.8835 86.4859 62.0558 86.3567 62.191 86.1891C62.3263 86.0214 62.4202 85.8205 62.4644 85.6046C62.529 85.2068 62.5575 84.8032 62.5495 84.3995V78.5008C62.5572 78.1002 62.5287 77.6996 62.4644 77.3048C62.4155 77.0668 62.3066 76.8475 62.1494 76.6705C62.0279 76.5222 61.8724 76.4098 61.6981 76.3443C61.4725 76.2657 61.2373 76.2229 61 76.2175V76H63.9373L69.9991 84.2092V78.5552C70.0114 78.1484 69.9829 77.7414 69.914 77.341C69.8661 77.1073 69.7603 76.8914 69.6075 76.7158C69.4784 76.5685 69.3179 76.4566 69.1393 76.3896C68.9197 76.3108 68.69 76.268 68.4582 76.2628V76H72V76.2628C71.7908 76.2508 71.5814 76.2848 71.3852 76.3628C71.1889 76.4407 71.0098 76.5609 70.8591 76.7158C70.7019 76.8929 70.593 77.1122 70.5441 77.3501C70.4797 77.7449 70.4512 78.1455 70.4589 78.5461V87L69.9822 86.9547Z" fill="#143B29"/>
<path id="Path 14" d="M62.9194 77.4502V84.4552C62.9111 84.8676 62.9399 85.2799 63.0054 85.6866C63.0598 85.9287 63.1725 86.1519 63.3325 86.3342C63.4643 86.4872 63.63 86.6032 63.8146 86.6716C64.0416 86.7552 64.28 86.7983 64.5203 86.7993V86.9909H61V86.7993C61.2374 86.7977 61.473 86.7545 61.6972 86.6716C61.8818 86.6032 62.0474 86.4873 62.1792 86.3342C62.3443 86.1522 62.4577 85.9246 62.5063 85.6774C62.5758 85.2744 62.6047 84.8647 62.5923 84.4552V78.5174C62.6048 78.1109 62.5759 77.7042 62.5063 77.3043C62.4577 77.0571 62.3444 76.8295 62.1792 76.6476C62.0521 76.493 61.8887 76.3766 61.7057 76.3101C61.4787 76.2266 61.2403 76.1834 61 76.1824V76H63.9265L70.0977 84.3458V78.5357C70.1086 78.1228 70.0768 77.7099 70.0031 77.3043C69.9595 77.0816 69.8632 76.8743 69.7232 76.702C69.5831 76.5297 69.404 76.398 69.2027 76.3192C68.9757 76.2357 68.7371 76.1926 68.4968 76.1915V76H72V76.1915C71.7837 76.1774 71.5669 76.2114 71.3638 76.2916C71.1607 76.3717 70.9757 76.4961 70.8208 76.6567C70.6556 76.8386 70.5423 77.0663 70.4937 77.3134C70.4241 77.7134 70.3952 78.1201 70.4077 78.5265V87H70.0634L62.9194 77.4502Z" fill="#143B29"/>
<path id="Path 15" d="M76.4999 86.9992C75.8199 87.0014 75.1467 86.8696 74.5217 86.612L73.9399 86.371C73.8746 86.362 73.8083 86.362 73.743 86.371C73.6323 86.3654 73.523 86.3966 73.4333 86.4592C73.3437 86.5219 73.2792 86.6123 73.2507 86.7152H73V83.5051H73.2507C73.4157 84.1643 73.6811 84.7966 74.0384 85.3812C74.2474 85.7522 74.5543 86.0636 74.9283 86.2842C75.3023 86.5048 75.7301 86.6267 76.1687 86.6378C76.4432 86.6465 76.7164 86.5997 76.9708 86.5003C77.2253 86.401 77.4552 86.2514 77.6457 86.0612C77.8387 85.8683 77.9896 85.6403 78.0895 85.3905C78.1894 85.1407 78.2364 84.8742 78.2275 84.6067C78.2258 84.3433 78.1805 84.0818 78.0932 83.8321C78.022 83.5881 77.9068 83.358 77.7531 83.1522C77.5739 82.9341 77.3592 82.7452 77.1175 82.5928C76.7112 82.3397 76.2898 82.1098 75.8554 81.9043C75.459 81.7182 75.0735 81.5114 74.7007 81.2846C74.462 81.1386 74.2425 80.9652 74.0473 80.7682C73.5946 80.2847 73.3484 79.6545 73.3581 79.004C73.3562 78.5801 73.4478 78.1606 73.6266 77.7732C73.7971 77.3882 74.0502 77.0421 74.3695 76.7577C74.9116 76.2611 75.6349 75.9891 76.3835 76.0003C76.6181 76.0001 76.8521 76.0232 77.0817 76.0692C77.372 76.1474 77.6561 76.2452 77.932 76.3618C78.1916 76.4565 78.3706 76.5253 78.4691 76.5511C78.5472 76.5761 78.6285 76.5906 78.7108 76.5942C78.8719 76.5942 78.9793 76.4737 79.042 76.2327H79.2926L79.3464 79.3224H79.0957C78.9928 78.9495 78.8702 78.5818 78.7287 78.2208C78.6311 77.9759 78.5113 77.7397 78.3706 77.515C78.1594 77.1722 77.8721 76.8783 77.5293 76.6544C77.2251 76.4555 76.8677 76.3449 76.4999 76.336C76.243 76.3244 75.9868 76.3696 75.751 76.4681C75.5151 76.5665 75.3059 76.7157 75.1393 76.904C74.8494 77.2302 74.6906 77.6454 74.6918 78.0745C74.6918 78.9351 75.2557 79.572 76.3656 80.0797L77.4755 80.5961C78.1937 80.8911 78.8333 81.3383 79.3464 81.9043C79.7777 82.4378 80.008 83.0962 79.9998 83.7719C80.0012 84.2344 79.9004 84.692 79.7043 85.1145C79.4494 85.692 79.0108 86.1771 78.4513 86.5001C77.8627 86.8399 77.1863 87.013 76.4999 86.9992Z" fill="#143B29"/>
<path id="Path 16" d="M73 86.6784V83.5148H73.1812C73.3483 84.1842 73.6166 84.8266 73.9779 85.4216C74.1936 85.8006 74.5097 86.1185 74.8943 86.3437C75.2789 86.5688 75.7186 86.6932 76.1692 86.7044C76.4516 86.7125 76.7327 86.6643 76.9946 86.5628C77.2565 86.4614 77.4935 86.3089 77.6905 86.115C77.8893 85.9157 78.0446 85.6805 78.1472 85.423C78.2498 85.1655 78.2977 84.891 78.288 84.6156C78.2851 84.3482 78.2425 84.0827 78.1614 83.8268C78.0832 83.5748 77.9607 83.3374 77.7992 83.1248C77.617 82.9004 77.3965 82.707 77.1471 82.5527C76.7362 82.2978 76.3099 82.0662 75.8705 81.8594C75.4695 81.672 75.0795 81.4636 74.7023 81.2353C74.4619 81.0939 74.2426 80.9218 74.0504 80.7239C73.5994 80.2507 73.3533 79.631 73.3622 78.9905C73.3624 78.5666 73.455 78.1474 73.6339 77.7597C73.8056 77.3787 74.0585 77.0363 74.3764 76.7543C74.9184 76.2621 75.6395 75.9916 76.3865 76.0002C76.6214 75.9984 76.8556 76.0247 77.0838 76.0782C77.3761 76.1482 77.6611 76.244 77.935 76.3642L78.4783 76.5549C78.5623 76.5848 78.6512 76.5995 78.7408 76.5983C78.9219 76.5983 79.0487 76.4682 79.1121 76.2082H79.2932L79.3566 79.2505H79.2389C79.094 78.7651 78.9762 78.3837 78.8676 78.1324C78.7695 77.884 78.6451 77.6458 78.4964 77.4217C78.271 77.0678 77.9606 76.7706 77.5909 76.5549C77.2655 76.3605 76.8878 76.2611 76.5043 76.2689C76.2381 76.2562 75.9725 76.3019 75.7276 76.4026C75.4828 76.5032 75.2654 76.6561 75.0917 76.8496C74.945 77.013 74.8314 77.2011 74.7567 77.4043C74.6754 77.6123 74.6325 77.8323 74.6299 78.0544C74.6299 78.9211 75.2004 79.5885 76.3504 80.1085L77.4732 80.6286C78.1953 80.9203 78.8368 81.3683 79.3475 81.9374C79.7825 82.4648 80.0129 83.1203 79.9994 83.7922C80.0029 84.2545 79.9042 84.7124 79.7097 85.1356C79.4474 85.7048 79.0119 86.185 78.4601 86.5137C77.8678 86.8459 77.1906 87.0139 76.5043 86.9991C75.8223 87.0004 75.1474 86.8677 74.5213 86.6091L73.9236 86.3664C73.8545 86.3574 73.7845 86.3574 73.7154 86.3664C73.5967 86.3616 73.4797 86.3948 73.383 86.4607C73.2863 86.5266 73.2153 86.6215 73.1812 86.7304L73 86.6784Z" fill="#143B29"/>
<path id="Path 17" d="M38.5884 8.98596V43.9742C38.597 44.2562 38.7164 44.5233 38.9207 44.7173C39.1251 44.9113 39.3977 45.0165 39.6791 45.0098C39.8191 45.0142 39.9586 44.9909 40.0896 44.9412C40.2207 44.8915 40.3407 44.8165 40.4427 44.7203C40.5448 44.6241 40.627 44.5087 40.6845 44.3807C40.742 44.2527 40.7738 44.1146 40.778 43.9742V8.98596H38.5884Z" fill="#143B29"/>
<path id="Path 18" d="M39.6871 4.5889C37.8501 4.5889 36.054 4.67932 34.3318 4.85192C34.6162 3.64922 35.2972 2.57788 36.2646 1.81125C37.232 1.04462 38.4292 0.627563 39.6625 0.627563C40.8958 0.627563 42.093 1.04462 43.0604 1.81125C44.0278 2.57788 44.7088 3.64922 44.9932 4.85192C43.2301 4.67431 41.4591 4.58652 39.6871 4.5889Z" fill="#143B29"/>
<path id="Path 19" d="M39.6872 7.59705C41.4669 7.59705 43.2055 7.67923 44.8785 7.83539C44.51 8.92332 43.8108 9.86826 42.879 10.5375C41.9471 11.2067 40.8295 11.5666 39.6831 11.5666C38.5368 11.5666 37.4191 11.2067 36.4873 10.5375C35.5555 9.86826 34.8563 8.92332 34.4878 7.83539C36.2018 7.67923 37.9076 7.59705 39.6872 7.59705Z" fill="#143B29"/>
<path id="Path 20" d="M45.1656 6.06818C45.1643 6.51107 45.1119 6.95234 45.0097 7.38323C43.2957 7.21885 41.5161 7.13665 39.6872 7.13665C37.8584 7.13665 36.0706 7.21884 34.3565 7.39144C34.2507 6.95841 34.1984 6.514 34.2008 6.06818C34.2002 5.81804 34.2166 5.56815 34.2499 5.32025C35.9967 5.14765 37.8174 5.04902 39.6872 5.04902C41.5004 5.04609 43.3125 5.13662 45.1163 5.32025C45.1496 5.56816 45.1661 5.81804 45.1656 6.06818Z" fill="#143B29"/>
<path id="Path 21" d="M63.8721 41.7553C63.8721 55.7276 51.1031 65.3027 41.2208 65.5904C41.2208 65.5904 38.9081 51.6921 44.8457 44.6484C50.1272 38.3773 59.4436 30.6186 57.0325 24.5118C57.0325 24.5118 57.1636 24.6269 57.3851 24.8488C58.7487 26.1885 59.7542 27.8505 60.3088 29.6818C60.8634 31.5131 60.9494 33.4547 60.5589 35.3281C60.122 37.5251 59.2186 39.6021 57.9099 41.4183C55.6628 44.5662 52.4727 46.8264 50.16 49.9086C47.9545 52.9918 46.6225 56.6157 46.3054 60.396C46.5538 58.8742 47.012 57.3943 47.6668 55.9988C48.2604 54.5328 49.0435 53.1511 49.9959 51.8893C52.7186 48.3634 56.7126 46.136 59.5337 42.6594C60.565 41.4096 61.4255 40.0276 62.0925 38.5499C62.5288 37.5759 62.8828 36.5669 63.1504 35.5335C63.6335 37.5719 63.8758 39.6602 63.8721 41.7553Z" fill="#143B29"/>
<path id="Path 22" d="M15.4778 41.7553C15.4778 55.7276 28.2469 65.3027 38.1292 65.5904C38.1292 65.5904 40.4419 51.6921 34.4962 44.6484C29.2147 38.3773 19.9064 30.6186 22.3175 24.5118L21.9567 24.8488C20.5962 26.1907 19.5929 27.8529 19.0385 29.6835C18.484 31.514 18.3962 33.4547 18.7829 35.3281C18.9494 36.1208 19.1713 36.9008 19.4471 37.6622C19.9437 38.9967 20.6138 40.2596 21.44 41.4183C23.6789 44.5662 26.8691 46.8264 29.19 49.9086C31.3922 52.9936 32.7238 56.6165 33.0446 60.396C32.7924 58.8751 32.3343 57.3957 31.6831 55.9988C31.0896 54.5311 30.3036 53.1491 29.3459 51.8893C26.6313 48.3634 22.6374 46.136 19.808 42.6594C18.7764 41.4114 17.9185 40.0289 17.2575 38.5499C16.8212 37.5759 16.4672 36.5669 16.1995 35.5335C15.7164 37.5719 15.4741 39.6602 15.4778 41.7553Z" fill="#143B29"/>
<path id="Path 23" d="M49.7418 25.6459C48.9217 26.9527 48.3722 30.5773 49.1021 33.3471C49.832 36.1169 48.1344 36.8237 46.3301 37.2594C44.6463 37.5364 42.9436 37.682 41.2373 37.695V17.0981C44.2577 17.281 47.216 18.0368 49.955 19.3255C50.3582 19.5154 50.7023 19.8114 50.9507 20.182C51.1992 20.5525 51.3426 20.9837 51.3656 21.4296C51.4066 23.0569 50.2503 24.8158 49.7418 25.6459Z" fill="#143B29"/>
<path id="Path 24" d="M29.6411 25.6459C30.4612 26.9527 31.0107 30.5773 30.2726 33.3471C29.5345 36.1169 31.2403 36.8237 33.0445 37.2594C34.7311 37.5364 36.4365 37.682 38.1456 37.695V17.0981C35.1227 17.2821 32.162 18.0379 29.4196 19.3255C29.018 19.5165 28.6756 19.813 28.4286 20.1835C28.1817 20.554 28.0395 20.9846 28.0173 21.4296C28.0009 23.0569 29.1162 24.8158 29.6411 25.6459Z" fill="#143B29"/>
</g>
</svg>
