<svg width="19" height="15" viewBox="0 0 19 15" fill="none" xmlns="http://www.w3.org/2000/svg">
<g id="&#240;&#159;&#166;&#134; icon &#34;arrow right 1&#34;">
<g id="Group">
<path id="Vector" d="M11.9898 14.5C11.7947 14.5 11.5997 14.4281 11.4457 14.2742C11.148 13.9764 11.148 13.4837 11.4457 13.186L17.133 7.49871L11.4457 1.81146C11.148 1.51375 11.148 1.02099 11.4457 0.723282C11.7434 0.425573 12.2362 0.425573 12.5339 0.723282L18.7652 6.95462C19.0629 7.25233 19.0629 7.74509 18.7652 8.0428L12.5339 14.2742C12.3799 14.4281 12.1848 14.5 11.9898 14.5Z" fill="#143B29"/>
<path id="Vector_2" d="M18.0473 8.26839H0.769937C0.349038 8.26839 0 7.91935 0 7.49845C0 7.07755 0.349038 6.72852 0.769937 6.72852H18.0473C18.4682 6.72852 18.8173 7.07755 18.8173 7.49845C18.8173 7.91935 18.4682 8.26839 18.0473 8.26839Z" fill="#143B29"/>
</g>
</g>
</svg>
